PathFileType	4	(X/Y/Z)	../Python\running\Running01\task.trc
DataRate	CameraRate	NumFrames	NumMarkers	Units	OrigDataRate	OrigDataStartFrame	OrigNumFrames
200.000000	200.000000	4	30	mm	200.000000	0	169
Frame#	Time	C7			RBAK			CLAV			STRN			RASI			LASI			RTH2			RTH3			RTB2			RHEE			RD5M			RTOE			LTH2			LTH3			LTB2			LTB3			LHEE			LTOE			LD5M			RPSI			RTH1			RTB1			RTB3			LPSI			PE03			T10			PE01			PE02			LTH1			LTB1			
		X1	Y1	Z1	X2	Y2	Z2	X3	Y3	Z3	X4	Y4	Z4	X5	Y5	Z5	X6	Y6	Z6	X7	Y7	Z7	X8	Y8	Z8	X9	Y9	Z9	X10	Y10	Z10	X11	Y11	Z11	X12	Y12	Z12	X13	Y13	Z13	X14	Y14	Z14	X15	Y15	Z15	X16	Y16	Z16	X17	Y17	Z17	X18	Y18	Z18	X19	Y19	Z19	X20	Y20	Z20	X21	Y21	Z21	X22	Y22	Z22	X23	Y23	Z23	X24	Y24	Z24	X25	Y25	Z25	X26	Y26	Z26	X27	Y27	Z27	X28	Y28	Z28	X29	Y29	Z29	X30	Y30	Z30	

1	0	-1405.032104492188	1329.050170898438	158.1090698242188	-1422.185302734375	1240.587158203125	283.2173461914064	-1296.823852539063	1224.32666015625	127.6570510864258	-1275.942993164063	1030.1474609375	125.3949584960938	-1355.311889648438	827.6631469726567	294.4887084960939	-1329.503051757813	836.8967285156255	71.31137847900393	-1579.228027343751	517.4673461914065	284.7182922363282	-1529.935913085938	551.454040527344	298.1481323242189	-1772.422729492188	329.6843566894532	268.9245910644532	-1927.107177734376	207.6307525634767	183.2598571777344	-1911.382446289063	58.69380569458011	249.759735107422	-1883.755737304688	41.65089797973634	205.2977447509767	-1288.802368164063	548.751403808594	41.12310028076173	-1245.733032226563	612.7007446289065	24.46886062622072	-1195.532104492188	221.3836517333986	41.19383621215822	-1162.4208984375	257.3448181152345	45.36031341552736	-1196.926513671875	37.66610717773439	96.56719970703131	-1011.470825195313	73.12287902832034	84.07842254638675	-1045.345947265625	52.43315887451175	41.1232147216797	-1526.235229492188	918.6797485351567	216.7897491455079	-1558.575073242188	592.1918945312502	303.7569580078126	-1712.010986328126	336.3282775878907	271.2885742187501	-1767.308715820313	279.1588134765626	260.9489135742189	-1520.6884765625	913.2002563476567	132.226303100586	-1536.328369140626	897.8897094726567	139.8260498046876	-1484.602172851563	1043.082397460938	183.4806213378907	-1504.725219726563	945.5820922851567	175.2134552001954	-1547.214233398438	896.4130859375005	189.3003997802735	-1296.13818359375	607.1367187500002	23.17546081542969	-1205.869384765625	299.6432189941407	31.661678314209	
2	0.005	-1388.493530273438	1330.348876953125	156.1100006103516	-1404.684326171875	1243.210693359375	282.0676574707032	-1280.2314453125	1226.21630859375	125.7586212158204	-1258.425659179688	1033.052124023438	124.8127899169922	-1336.615356445313	829.025024414063	294.570770263672	-1311.099609375	839.5679321289067	71.99835968017581	-1561.696533203126	519.4774169921877	284.3862609863282	-1512.470947265625	553.3986816406252	298.2184143066407	-1756.618164062501	333.4605712890626	268.5948791503907	-1913.510620117188	215.1499328613282	184.0494232177735	-1900.327636718751	65.0977478027344	248.6770019531251	-1873.697753906251	46.7574920654297	203.5634613037111	-1272.526611328125	549.0999755859377	41.22677230834962	-1229.023193359375	612.5085449218752	24.76470756530763	-1173.808471679688	221.1450958251954	42.31773376464845	-1141.602783203125	258.1173400878907	45.56702804565431	-1169.238403320313	38.46366500854494	97.98582458496099	-983.2614746093755	76.01704406738284	85.21836853027347	-1017.210205078125	53.32241821289065	43.00327301025392	-1507.096801757813	921.0036010742192	218.2843475341798	-1541.019531250001	594.146423339844	303.4564819335939	-1695.453002929688	337.869842529297	269.4234313964845	-1752.371826171876	283.0091247558595	260.5557556152345	-1502.138305664063	915.5151977539067	133.5975341796876	-1517.50390625	900.2597656250005	141.0742340087891	-1467.166748046875	1044.776489257813	184.5205688476563	-1485.878051757813	947.7808227539067	176.595199584961	-1528.240478515625	898.5509643554692	190.5732116699219	-1279.243896484375	607.6043701171877	23.33328247070313	-1186.620849609375	299.072967529297	32.55088424682619	
3	0.01	-1371.885375976563	1331.39892578125	154.1141357421876	-1387.233276367188	1245.538696289063	280.900848388672	-1263.567138671875	1227.817749023438	123.9206924438477	-1240.897094726563	1035.7275390625	124.2921905517579	-1317.986206054688	830.2380981445317	294.582244873047	-1292.811279296875	841.9893188476567	72.589714050293	-1543.363891601563	520.6290283203127	284.287078857422	-1494.297607421875	554.6800537109377	298.326385498047	-1740.207519531251	336.768280029297	268.2849121093751	-1900.001586914063	222.5738525390626	184.3708496093751	-1888.607421875001	71.81577301025393	247.5088043212892	-1862.836425781251	52.3361625671387	201.7045898437501	-1256.302368164063	549.1682739257815	41.38192367553712	-1212.381225585938	611.9901123046877	24.84306144714357	-1152.92236328125	221.0727844238282	43.46152114868165	-1121.480590820313	258.8780517578126	45.80968856811525	-1143.147827148438	39.4533157348633	99.37903594970709	-956.6600952148442	78.641471862793	86.43814086914065	-990.6613769531255	54.03113174438479	44.98680496215822	-1488.027709960938	923.187866210938	219.7407379150392	-1522.913330078125	595.3460693359377	303.3073730468751	-1678.463500976563	339.0438537597657	267.6692504882814	-1737.024414062501	286.4434814453126	259.9953002929689	-1483.69775390625	917.654907226563	134.9006958007813	-1498.77490234375	902.4484863281255	142.2961730957032	-1449.778442382813	1046.28515625	185.4051513671876	-1467.171264648438	949.870727539063	177.9008483886719	-1509.32421875	900.5232543945317	191.8259735107422	-1262.433715820313	607.7596435546877	23.40508460998536	-1167.852905273438	298.6604919433595	33.49183654785158	
4	0.015	-1355.206420898438	1332.204345703125	152.1226196289063	-1369.831787109375	1247.572143554688	279.718963623047	-1246.83251953125	1229.135009765625	122.1453399658204	-1223.365966796875	1038.159057617188	123.8342742919922	-1299.419677734375	831.3039550781255	294.529022216797	-1274.640625	844.1524047851567	73.07889556884768	-1524.262573242188	520.9314575195315	284.3880615234376	-1475.4228515625	555.2839965820315	298.4147338867189	-1723.215087890626	339.6285095214845	267.9848937988282	-1886.425781250001	229.8944396972657	184.1547546386719	-1876.309692382813	78.78967285156253	246.2746582031251	-1851.270507812501	58.30684661865237	199.8092193603517	-1240.090576171875	548.9833984375002	41.57722854614259	-1195.767456054688	611.1763916015627	24.68527221679689	-1132.834838867188	221.1183166503907	44.59928512573244	-1102.013549804688	259.576141357422	46.12091064453126	-1118.735595703125	40.53875732421876	100.7858810424805	-931.790649414063	80.79386138916018	87.78293609619143	-965.812377929688	54.42903518676761	47.09508514404298	-1469.042236328125	925.1945190429692	221.1433715820314	-1504.251831054688	595.7876586914065	303.2962951660157	-1661.044189453126	339.8622131347657	266.0334472656251	-1721.260375976563	289.4833984375001	259.2754516601564	-1465.376586914063	919.5820312500005	136.1260070800782	-1480.1533203125	904.4169311523442	143.4852447509766	-1432.439331054688	1047.602172851563	186.1326751708985	-1448.617919921875	951.8188476562505	179.1183471679688	-1490.480224609375	902.298706054688	193.0515899658204	-1245.67529296875	607.6292114257815	23.39097023010255	-1149.4990234375	298.3801879882814	34.45130920410158	
